<svg width="216" height="204" viewBox="0 0 216 204" fill="none" xmlns="http://www.w3.org/2000/svg">
<path d="M139.271 0.793381C142.261 -0.623131 146.07 0.00500748 149.756 1.51408C156.976 4.47024 165.164 11.389 169.824 18.3256L170.265 18.9965L170.313 19.0746L170.354 19.1576L177.359 33.8383L214.906 110.265C215.271 111.008 214.965 111.907 214.222 112.273C213.478 112.638 212.579 112.332 212.214 111.589L178.229 42.4096L178.146 42.4496L174.673 35.1733L168.334 22.269L63.1699 98.1215C62.8764 98.3332 62.5448 98.4517 62.209 98.4867L47 133.413V198.803C47 201.565 44.7614 203.803 42 203.803H25C22.3247 203.803 20.1405 201.702 20.0068 199.06L20 198.803V133.803H0L71 78.3031L70.875 78.5883L126.173 36.1205L126.231 36.1967L130.517 32.8637C131.345 32.0414 131.814 31.67 132.291 31.0649C132.707 30.5364 133.093 29.8459 133.424 28.5844C134.117 25.9404 134.5 21.0852 134.5 10.8041C134.5 5.7221 136.115 2.28917 139.271 0.793381ZM23 198.803C23 199.908 23.8954 200.803 25 200.803H42C43.1046 200.803 44 199.908 44 198.803V134.803H23V198.803ZM8.70898 130.803H20V121.976L8.70898 130.803ZM23 119.631V130.803H44.8643L63.5244 87.9535L23 119.631ZM148.619 4.29045C145.16 2.87413 142.374 2.64357 140.557 3.50432C138.906 4.28618 137.5 6.26782 137.5 10.8041C137.5 21.0221 137.133 26.2661 136.326 29.3451C135.907 30.9444 135.355 32.0225 134.646 32.9213C134.013 33.7249 133.184 34.4376 132.561 35.061L132.494 35.1274L132.421 35.184L123.421 42.184L123.339 42.0785L68.3994 84.2729L65.1328 91.7738L166.427 18.7143C161.964 12.6755 154.81 6.82498 148.619 4.29045Z" fill="black"/>
</svg>
